{"title":"The.Reunion.2011.BRRip.720p.x264.Feel-Free","uid":6839246,"size":2450359222,"categoryP":"video","categoryS":"hd___movies","magnet":"?xt=urn:btih:08279daefd38cf74391713cfa24b1b7a7d8ef4a9&amp;dn=The.Reunion.2011.BRRip.720p.x264.Feel-Free&amp;tr=udp%3A%2F%2Ftracker.openbittorrent.com%3A80&amp;tr=udp%3A%2F%2Fopen.demonii.com%3A1337&amp;tr=udp%3A%2F%2Ftracker.coppersurfer.tk%3A6969&amp;tr=udp%3A%2F%2Fexodus.desync.com%3A6969","seeders":0,"leechers":1,"uploader":".BONE.","files":7,"time":1322116321,"description":"Genre:Action | Drama\nLanguage:English &lt;a href=&quot;\nhttp://www.imdb.com/title/tt1792543/&quot; rel=&quot;nofollow&quot; target=&quot;_NEW&quot;&gt;\nhttp://www.imdb.com/title/tt1792543/&lt;/a&gt;\nSource:BluRay.720p.DTS.X264.CHD Thanks!\n\nFormat : MPEG-4\nFormat profile : Base Media\nCodec ID : isom\nFile size : 2.28 GiB\nDuration : 1h 36mn\nOverall bit rate : 3 395 Kbps\n\nVideo\nID : 1\nFormat : AVC\nFormat/Info : Advanced Video Codec\nFormat profile : &lt;a class=&quot;__cf_email__&quot; href=&quot;/cdn-cgi/l/email-protection&quot; data-cfemail=&quot;9cd4f5fbf4dcd0a9b2ad&quot;&gt;[email&amp;#160;protected]&lt;/a&gt;&lt;script cf-hash='f9e31' type=&quot;text/javascript&quot;&gt;\n/* &lt;![CDATA[ */!function(){try{var t=&quot;currentScript&quot;in document?document.currentScript:function(){for(var t=document.getElementsByTagName(&quot;script&quot;),e=t.length;e--;)if(t[e].getAttribute(&quot;cf-hash&quot;))return t[e]}();if(t&amp;&amp;t.previousSibling){var e,r,n,i,c=t.previousSibling,a=c.getAttribute(&quot;data-cfemail&quot;);if(a){for(e=&quot;&quot;,r=parseInt(a.substr(0,2),16),n=2;a.length-n;n+=2)i=parseInt(a.substr(n,2),16)^r,e+=String.fromCharCode(i);e=document.createTextNode(e),c.parentNode.replaceChild(e,c)}}}catch(u){}}();/* ]]&gt; */&lt;/script&gt;\nFormat settings, CABAC : Yes\nFormat settings, ReFrames : 3 frames\nCodec ID : avc1\nCodec ID/Info : Advanced Video Coding\nDuration : 1h 36mn\nBit rate mode : Variable\nBit rate : 3 000 Kbps\nMaximum bit rate : 16.8 Mbps\nWidth : 1 280 pixels\nHeight : 688 pixels\nDisplay aspect ratio : 1.860\nFrame rate mode : Constant\nFrame rate : 23.976 fps\nColor space : YUV\nChroma subsampling : 4:2:0\nBit depth : 8 bits\nScan type : Progressive\nBits/(Pixel*Frame) : 0.142\nStream size : 1.98 GiB (87%)\nWriting library : x264\n\nAudio\nID : 2\nFormat : AAC\nFormat/Info : Advanced Audio Codec\nFormat version : Version 4\nFormat profile : LC\nFormat settings, SBR : No\nCodec ID : 40\nDuration : 1h 36mn\nBit rate mode : Variable\nBit rate : 436 Kbps\nMaximum bit rate : 531 Kbps\nChannel(s) : 6 channels\nChannel positions : Front: L C R, Side: L R, LFE\nSampling rate : 48.0 KHz\nStream size : 300 MiB (13%)\n\n\nPlot:\nSam and Leo Cleary have grown up hating each other, and neither likes their juvenile delinquent kid brother..\n &lt;a href=&quot;\nhttp://img694.imageshack.us/img694/5550/vlcsnap00001mn.png&quot; rel=&quot;nofollow&quot; target=&quot;_NEW&quot;&gt;\nhttp://img694.imageshack.us/img694/5550/vlcsnap00001mn.png&lt;/a&gt;\n &lt;a href=&quot;\nhttp://img534.imageshack.us/img534/6509/vlcsnap00002ex.png&quot; rel=&quot;nofollow&quot; target=&quot;_NEW&quot;&gt;\nhttp://img534.imageshack.us/img534/6509/vlcsnap00002ex.png&lt;/a&gt;\n &lt;a href=&quot;\nhttp://img690.imageshack.us/img690/9545/vlcsnap00003ei.png&quot; rel=&quot;nofollow&quot; target=&quot;_NEW&quot;&gt;\nhttp://img690.imageshack.us/img690/9545/vlcsnap00003ei.png&lt;/a&gt;\n","torrent":{"xt":"urn:btih:08279daefd38cf74391713cfa24b1b7a7d8ef4a9","amp;dn":"The.Reunion.2011.BRRip.720p.x264.Feel-Free","amp;tr":["udp%3A%2F%2Ftracker.openbittorrent.com%3A80","udp%3A%2F%2Fopen.demonii.com%3A1337","udp%3A%2F%2Ftracker.coppersurfer.tk%3A6969","udp%3A%2F%2Fexodus.desync.com%3A6969"],"infoHash":"08279daefd38cf74391713cfa24b1b7a7d8ef4a9","infoHashBuffer":{"type":"Buffer","data":[8,39,157,174,253,56,207,116,57,23,19,207,162,75,27,122,125,142,244,169]},"announce":[],"urlList":[]}}